<?xml version="1.0" encoding="utf-8"?><svg viewBox="0 0 35 21" xmlns="http://www.w3.org/2000/svg" xmlns:xlink="http://www.w3.org/1999/xlink"><style>:root>svg{display:none}:root>svg:target{display:block}</style><svg fill="none" viewBox="0 0 35 21" id="arrow" xmlns="http://www.w3.org/2000/svg"><path d="M18.866 20.004L34.44 4.428A1.9 1.9 0 0035 3.075a1.9 1.9 0 00-.56-1.354L33.295.574a1.917 1.917 0 00-2.708 0L17.507 13.653 4.414.559C4.054.2 3.573 0 3.06 0c-.513 0-.994.199-1.354.56L.559 1.705C.2 2.066 0 2.547 0 3.06c0 .513.199.994.56 1.354l15.588 15.59c.362.361.845.56 1.358.558.516.001.998-.197 1.36-.558z" fill="#000"/></svg></svg>